<svg width="48" height="48" viewBox="0 0 48 48" fill="none" xmlns="http://www.w3.org/2000/svg">
<g id="Frame">
<path id="Vector" fill-rule="evenodd" clip-rule="evenodd" d="M3.19824 12.1133C3.19824 10.9311 3.66788 9.7973 4.50383 8.96135C5.33978 8.1254 6.47358 7.65576 7.65579 7.65576H40.3445C41.5267 7.65576 42.6605 8.1254 43.4965 8.96135C44.3324 9.7973 44.802 10.9311 44.802 12.1133V35.8869C44.802 37.0691 44.3324 38.2029 43.4965 39.0389C42.6605 39.8748 41.5267 40.3445 40.3445 40.3445H7.65579C6.47358 40.3445 5.33978 39.8748 4.50383 39.0389C3.66788 38.2029 3.19824 37.0691 3.19824 35.8869V12.1133ZM6.16994 32.0435V35.8869C6.16994 36.7071 6.8356 37.3728 7.65579 37.3728H40.3445C40.7386 37.3728 41.1165 37.2162 41.3951 36.9376C41.6738 36.6589 41.8303 36.281 41.8303 35.8869V32.0435L36.5011 26.7162C35.9439 26.1597 35.1886 25.8472 34.4011 25.8472C33.6136 25.8472 32.8583 26.1597 32.3011 26.7162L30.5577 28.4577L32.4794 30.3794C32.6254 30.5154 32.7425 30.6794 32.8237 30.8617C32.9049 31.0439 32.9485 31.2407 32.9521 31.4402C32.9556 31.6397 32.9189 31.8379 32.8442 32.0229C32.7694 32.2079 32.6582 32.376 32.5171 32.5171C32.376 32.6582 32.2079 32.7694 32.0229 32.8441C31.8379 32.9189 31.6397 32.9556 31.4402 32.952C31.2407 32.9485 31.044 32.9048 30.8617 32.8236C30.6795 32.7424 30.5154 32.6253 30.3794 32.4794L20.1567 22.2587C19.5995 21.7022 18.8442 21.3896 18.0567 21.3896C17.2692 21.3896 16.5139 21.7022 15.9567 22.2587L6.16994 32.0455V32.0435ZM26.2289 16.5709C26.2289 15.9798 26.4637 15.4129 26.8817 14.9949C27.2997 14.5769 27.8666 14.3421 28.4577 14.3421C29.0488 14.3421 29.6157 14.5769 30.0337 14.9949C30.4516 15.4129 30.6865 15.9798 30.6865 16.5709C30.6865 17.162 30.4516 17.7289 30.0337 18.1468C29.6157 18.5648 29.0488 18.7996 28.4577 18.7996C27.8666 18.7996 27.2997 18.5648 26.8817 18.1468C26.4637 17.7289 26.2289 17.162 26.2289 16.5709Z" fill="#6B6F7A"/>
</g>
</svg>
