<svg width="42" height="40" viewBox="0 0 42 40" fill="none" xmlns="http://www.w3.org/2000/svg">
<g id="Isolation_Mode" clip-path="url(#clip0_220_865)">
<path id="Vector" d="M25.1041 9.31589V22.7679C25.1041 22.6894 25.1041 22.6162 25.1041 22.5377C24.9786 17.7031 21.023 13.8208 16.1571 13.8208C11.2911 13.8208 7.20998 17.8235 7.20998 22.7679C7.20998 27.7123 11.2126 31.715 16.1571 31.715C21.1015 31.715 24.9786 27.8327 25.1041 22.9981C25.1041 22.9196 25.1041 22.8464 25.1041 22.7679V36.2199C22.5456 37.9256 19.4638 38.9197 16.1571 38.9197C7.23091 38.9197 0 31.6888 0 22.7679C0 13.847 7.23091 6.61084 16.1518 6.61084C19.4638 6.61084 22.5403 7.60496 25.0989 9.31066L25.1041 9.31589Z" fill="url(#paint0_linear_220_865)"/>
<g id="Group">
<path id="Vector_2" d="M41.4606 6.19727V39.3381C39.4724 39.3381 37.6673 38.5323 36.3644 37.2295C35.0616 35.9214 34.2559 34.1216 34.2559 32.1333V13.402C34.2559 9.42031 37.4841 6.19727 41.4606 6.19727Z" fill="url(#paint1_linear_220_865)"/>
<path id="Vector_3" d="M41.4606 10.9429V39.3381C39.4724 39.3381 37.6673 38.5323 36.3644 37.2295C35.0616 35.9214 34.2559 34.1215 34.2559 32.1333V18.1529C34.2559 14.1711 37.4841 10.9481 41.4606 10.9481V10.9429Z" fill="url(#paint2_linear_220_865)"/>
</g>
<g id="Group_2">
<path id="Vector_4" d="M25.0996 6.19727V39.3381C27.0878 39.3381 28.893 38.5323 30.1958 37.2295C31.4986 35.9214 32.3044 34.1216 32.3044 32.1333V13.402C32.3044 9.42031 29.0761 6.19727 25.0996 6.19727Z" fill="url(#paint3_linear_220_865)"/>
<path id="Vector_5" d="M25.0996 10.9429V39.3381C27.0878 39.3381 28.893 38.5323 30.1958 37.2295C31.4986 35.9214 32.3044 34.1215 32.3044 32.1333V18.1529C32.3044 14.1711 29.0761 10.9481 25.0996 10.9481V10.9429Z" fill="url(#paint4_linear_220_865)"/>
</g>
<path id="Vector_6" d="M36.6827 4.06256C36.6827 5.94092 35.1602 7.46349 33.2818 7.46349C31.4034 7.46349 29.8809 5.94092 29.8809 4.06256C29.8809 2.18419 31.4034 0.661621 33.2818 0.661621C35.1602 0.661621 36.6827 2.18419 36.6827 4.06256Z" fill="url(#paint5_linear_220_865)"/>
<path id="Vector_7" d="M25.0995 22.9979C24.9739 28.8737 20.176 33.5983 14.274 33.5983C8.3721 33.5983 3.44336 28.7481 3.44336 22.7677C3.44336 16.7873 8.29361 11.937 14.274 11.937C20.2544 11.937 24.9791 16.6617 25.0995 22.5375C24.9739 17.7029 21.0183 13.8206 16.1524 13.8206C11.2864 13.8206 7.20532 17.8232 7.20532 22.7677C7.20532 27.7121 11.208 31.7148 16.1524 31.7148C21.0968 31.7148 24.9739 27.8325 25.0995 22.9979Z" fill="url(#paint6_linear_220_865)"/>
</g>
<defs>
<linearGradient id="paint0_linear_220_865" x1="0" y1="22.7679" x2="25.1041" y2="22.7679" gradientUnits="userSpaceOnUse">
<stop stop-color="#395A96"/>
<stop offset="0.5" stop-color="#3C76DF"/>
<stop offset="1" stop-color="#0A3481"/>
</linearGradient>
<linearGradient id="paint1_linear_220_865" x1="34.2559" y1="22.7703" x2="38.1567" y2="6.66162" gradientUnits="userSpaceOnUse">
<stop stop-color="#395A96"/>
<stop offset="0.5" stop-color="#3C76DF"/>
<stop offset="1" stop-color="#0A3481"/>
</linearGradient>
<linearGradient id="paint2_linear_220_865" x1="34.2559" y1="25.1428" x2="41.4606" y2="25.1428" gradientUnits="userSpaceOnUse">
<stop stop-color="#395A96"/>
<stop offset="0.5" stop-color="#3C76DF"/>
<stop offset="1" stop-color="#0A3481"/>
</linearGradient>
<linearGradient id="paint3_linear_220_865" x1="25.0996" y1="22.7703" x2="29.0005" y2="6.66162" gradientUnits="userSpaceOnUse">
<stop stop-color="#395A96"/>
<stop offset="0.5" stop-color="#3C76DF"/>
<stop offset="1" stop-color="#0A3481"/>
</linearGradient>
<linearGradient id="paint4_linear_220_865" x1="25.0996" y1="25.1428" x2="32.3044" y2="25.1428" gradientUnits="userSpaceOnUse">
<stop stop-color="#395A96"/>
<stop offset="0.5" stop-color="#3C76DF"/>
<stop offset="1" stop-color="#0A3481"/>
</linearGradient>
<linearGradient id="paint5_linear_220_865" x1="29.8809" y1="4.06311" x2="30.0646" y2="0.572721" gradientUnits="userSpaceOnUse">
<stop stop-color="#395A96"/>
<stop offset="0.5" stop-color="#3C76DF"/>
<stop offset="1" stop-color="#0A3481"/>
</linearGradient>
<linearGradient id="paint6_linear_220_865" x1="13.5005" y1="16.6616" x2="32.0005" y2="1.66162" gradientUnits="userSpaceOnUse">
<stop stop-color="#395A96"/>
<stop offset="0.5" stop-color="#3C76DF"/>
<stop offset="1" stop-color="#0A3481"/>
</linearGradient>
<clipPath id="clip0_220_865">
<rect width="41.46" height="38.6765" fill="white" transform="translate(0 0.661621)"/>
</clipPath>
</defs>
</svg>
